<svg width="328" height="80" viewBox="0 0 328 80" fill="none" xmlns="http://www.w3.org/2000/svg">
<path d="M85.853 57.0897C83.6498 57.0897 81.5314 56.7366 79.4977 56.0304C77.4922 55.3243 75.9386 54.3922 74.8371 53.2341L76.0658 50.819C77.1391 51.8924 78.5655 52.768 80.345 53.4459C82.1245 54.0956 83.9605 54.4204 85.853 54.4204C88.5082 54.4204 90.4995 53.9402 91.8271 52.9799C93.1546 51.9912 93.8184 50.7202 93.8184 49.1666C93.8184 47.9803 93.4512 47.0341 92.7168 46.3279C92.0107 45.6218 91.135 45.0851 90.0899 44.7179C89.0448 44.3224 87.5902 43.8987 85.7259 43.4468C83.4945 42.8819 81.715 42.3452 80.3874 41.8368C79.0598 41.3001 77.9159 40.4951 76.9555 39.4217C76.0234 38.3484 75.5573 36.8937 75.5573 35.0577C75.5573 33.5607 75.9528 32.2049 76.7437 30.9903C77.5346 29.7475 78.7491 28.7588 80.3874 28.0245C82.0257 27.2901 84.0594 26.9229 86.4886 26.9229C88.1833 26.9229 89.8357 27.1629 91.4457 27.6431C93.084 28.0951 94.4963 28.7306 95.6827 29.5497L94.6234 32.0495C93.3806 31.2304 92.053 30.6231 90.6407 30.2276C89.2284 29.804 87.8444 29.5921 86.4886 29.5921C83.8899 29.5921 81.9268 30.1005 80.5993 31.1174C79.2999 32.106 78.6503 33.3912 78.6503 34.973C78.6503 36.1593 79.0033 37.1197 79.7095 37.8541C80.4439 38.5602 81.3478 39.111 82.4211 39.5065C83.5227 39.8737 84.9915 40.2832 86.8275 40.7352C89.0025 41.2719 90.7537 41.8085 92.0813 42.3452C93.4371 42.8536 94.5811 43.6445 95.5132 44.7179C96.4453 45.763 96.9114 47.1894 96.9114 48.9972C96.9114 50.4942 96.5018 51.8641 95.6827 53.107C94.8918 54.3215 93.6631 55.296 91.9965 56.0304C90.33 56.7366 88.2822 57.0897 85.853 57.0897ZM124.631 42.0063H127.639V53.3188C126.255 54.5334 124.617 55.4655 122.724 56.1152C120.832 56.7648 118.84 57.0897 116.75 57.0897C113.784 57.0897 111.115 56.44 108.742 55.1407C106.37 53.8414 104.505 52.0477 103.15 49.7598C101.794 47.4436 101.116 44.8591 101.116 42.0063C101.116 39.1534 101.794 36.583 103.15 34.2951C104.505 31.9789 106.37 30.1712 108.742 28.8718C111.115 27.5725 113.798 26.9229 116.792 26.9229C119.052 26.9229 121.128 27.2901 123.021 28.0245C124.913 28.7306 126.509 29.7898 127.808 31.2021L125.859 33.1935C123.515 30.8773 120.535 29.7192 116.92 29.7192C114.519 29.7192 112.344 30.2559 110.395 31.3292C108.474 32.3743 106.963 33.8431 105.861 35.7356C104.76 37.5999 104.209 39.6901 104.209 42.0063C104.209 44.3224 104.76 46.4126 105.861 48.2769C106.963 50.1411 108.474 51.6099 110.395 52.6833C112.315 53.7566 114.476 54.2933 116.877 54.2933C119.928 54.2933 122.512 53.5307 124.631 52.0054V42.0063Z" fill="#040404"/>
<path d="M166.8 41.6673H172.011V53.4883C170.486 54.7029 168.706 55.635 166.672 56.2847C164.639 56.9343 162.549 57.2591 160.402 57.2591C157.379 57.2591 154.654 56.6095 152.225 55.3102C149.795 53.9826 147.889 52.1607 146.505 49.8445C145.121 47.5284 144.429 44.9156 144.429 42.0063C144.429 39.0969 145.121 36.4842 146.505 34.168C147.889 31.8518 149.795 30.044 152.225 28.7447C154.682 27.4172 157.436 26.7534 160.487 26.7534C162.972 26.7534 165.232 27.1629 167.266 27.9821C169.299 28.8012 171.008 30.0017 172.392 31.5835L168.918 34.973C166.658 32.7133 163.933 31.5835 160.741 31.5835C158.651 31.5835 156.786 32.0213 155.148 32.8969C153.538 33.7725 152.267 35.0012 151.335 36.583C150.431 38.1648 149.979 39.9725 149.979 42.0063C149.979 43.9835 150.431 45.763 151.335 47.3448C152.267 48.9265 153.538 50.1694 155.148 51.0732C156.786 51.9771 158.636 52.4291 160.698 52.4291C163.015 52.4291 165.048 51.9206 166.8 50.9038V41.6673ZM183.809 37.5151C185.334 35.1425 188.018 33.9561 191.859 33.9561V38.9981C191.407 38.9133 190.998 38.8709 190.631 38.8709C188.569 38.8709 186.959 39.4782 185.8 40.6928C184.642 41.8792 184.063 43.6022 184.063 45.8618V56.8354H178.767V34.2103H183.809V37.5151ZM206.314 57.132C204.026 57.132 201.964 56.6377 200.128 55.6491C198.292 54.6605 196.851 53.2906 195.806 51.5393C194.789 49.7598 194.281 47.7543 194.281 45.5229C194.281 43.2915 194.789 41.3001 195.806 39.5488C196.851 37.7976 198.292 36.4277 200.128 35.439C201.964 34.4504 204.026 33.9561 206.314 33.9561C208.63 33.9561 210.706 34.4504 212.542 35.439C214.378 36.4277 215.804 37.7976 216.821 39.5488C217.866 41.3001 218.389 43.2915 218.389 45.5229C218.389 47.7543 217.866 49.7598 216.821 51.5393C215.804 53.2906 214.378 54.6605 212.542 55.6491C210.706 56.6377 208.63 57.132 206.314 57.132ZM206.314 52.5985C208.263 52.5985 209.873 51.9489 211.144 50.6496C212.415 49.3502 213.05 47.6414 213.05 45.5229C213.05 43.4044 212.415 41.6956 211.144 40.3962C209.873 39.0969 208.263 38.4473 206.314 38.4473C204.365 38.4473 202.755 39.0969 201.484 40.3962C200.241 41.6956 199.619 43.4044 199.619 45.5229C199.619 47.6414 200.241 49.3502 201.484 50.6496C202.755 51.9489 204.365 52.5985 206.314 52.5985ZM233.834 57.132C231.489 57.132 229.385 56.6377 227.521 55.6491C225.657 54.6605 224.202 53.2906 223.157 51.5393C222.112 49.7598 221.589 47.7543 221.589 45.5229C221.589 43.2915 222.112 41.3001 223.157 39.5488C224.202 37.7976 225.642 36.4277 227.478 35.439C229.343 34.4504 231.461 33.9561 233.834 33.9561C236.065 33.9561 238.014 34.4081 239.681 35.3119C241.375 36.2158 242.647 37.5151 243.494 39.2099L239.426 41.5826C238.777 40.5375 237.958 39.7607 236.969 39.2523C236.009 38.7156 234.949 38.4473 233.791 38.4473C231.814 38.4473 230.176 39.0969 228.877 40.3962C227.577 41.6673 226.928 43.3762 226.928 45.5229C226.928 47.6696 227.563 49.3926 228.834 50.6919C230.134 51.963 231.786 52.5985 233.791 52.5985C234.949 52.5985 236.009 52.3443 236.969 51.8359C237.958 51.2992 238.777 50.5083 239.426 49.4632L243.494 51.8359C242.618 53.5307 241.333 54.8441 239.638 55.7762C237.972 56.6801 236.037 57.132 233.834 57.132ZM269.01 45.65C269.01 46.0172 268.982 46.5398 268.926 47.2177H251.173C251.484 48.8842 252.289 50.2117 253.588 51.2004C254.916 52.1607 256.554 52.6409 258.503 52.6409C260.989 52.6409 263.036 51.8218 264.646 50.1835L267.485 53.4459C266.468 54.6605 265.183 55.5785 263.63 56.1999C262.076 56.8213 260.325 57.132 258.376 57.132C255.89 57.132 253.701 56.6377 251.809 55.6491C249.916 54.6605 248.447 53.2906 247.402 51.5393C246.385 49.7598 245.877 47.7543 245.877 45.5229C245.877 43.3197 246.371 41.3425 247.36 39.5912C248.377 37.8117 249.775 36.4277 251.554 35.439C253.334 34.4504 255.339 33.9561 257.571 33.9561C259.774 33.9561 261.737 34.4504 263.46 35.439C265.211 36.3994 266.567 37.7693 267.527 39.5488C268.516 41.3001 269.01 43.3338 269.01 45.65ZM257.571 38.193C255.876 38.193 254.435 38.7015 253.249 39.7183C252.091 40.7069 251.385 42.0345 251.131 43.701H263.968C263.743 42.0628 263.05 40.7352 261.892 39.7183C260.734 38.7015 259.294 38.193 257.571 38.193ZM279.14 37.5151C280.665 35.1425 283.348 33.9561 287.19 33.9561V38.9981C286.738 38.9133 286.328 38.8709 285.961 38.8709C283.899 38.8709 282.289 39.4782 281.131 40.6928C279.973 41.8792 279.394 43.6022 279.394 45.8618V56.8354H274.098V34.2103H279.14V37.5151ZM313.695 34.2103L303.102 58.6573C302.114 61.1147 300.913 62.8377 299.501 63.8264C298.089 64.8432 296.38 65.3516 294.374 65.3516C293.244 65.3516 292.129 65.168 291.027 64.8008C289.926 64.4336 289.022 63.9252 288.315 63.2756L290.434 59.3776C290.942 59.8578 291.536 60.2391 292.213 60.5216C292.92 60.804 293.626 60.9453 294.332 60.9453C295.264 60.9453 296.027 60.7052 296.62 60.225C297.241 59.7448 297.806 58.9398 298.315 57.8099L298.696 56.9202L288.824 34.2103H294.332L301.45 50.9461L308.61 34.2103H313.695Z" fill="#55AB60"/>
<path d="M45.2643 8.52881C46.4879 8.53101 47.6609 8.98292 48.527 9.78585C49.3931 10.5888 49.8818 11.6775 49.8866 12.8141V21.5016C49.8818 22.6382 49.3931 23.7269 48.527 24.5298C47.6609 25.3327 46.4879 25.7846 45.2643 25.7868H35.9209" stroke="black" stroke-width="2.4923" stroke-linecap="round" stroke-linejoin="round"/>
<path d="M15.7155 77.9954C18.9441 77.9954 21.5614 75.5644 21.5614 72.5657C21.5614 69.5669 18.9441 67.136 15.7155 67.136C12.4869 67.136 9.86963 69.5669 9.86963 72.5657C9.86963 75.5644 12.4869 77.9954 15.7155 77.9954Z" stroke="black" stroke-width="2.4923" stroke-linecap="round" stroke-linejoin="round"/>
<path d="M8.87959 7.44529e-06C8.87959 7.44529e-06 8.59182 22.9383 30.3273 20.14C33.3488 -0.0918779 8.87959 7.44529e-06 8.87959 7.44529e-06Z" fill="#A3CB38"/>
<path d="M9.06885 3.24951C9.75229 8.98827 13.1965 22.2701 30.3546 20.0648L9.06885 3.24951Z" fill="#C4E538"/>
<path d="M30.3279 19.9399L12.2075 0.16748C18.3585 0.793983 32.7109 3.97662 30.3279 19.9399Z" fill="#A2E54C"/>
<path d="M2 51.6824H41.568" stroke="#A2E54C" stroke-width="2.4923" stroke-linecap="round" stroke-linejoin="round"/>
<path d="M55.7309 53.3529C55.7309 56.0115 54.5939 58.5611 52.5702 60.441C50.5464 62.3209 47.8016 63.377 44.9396 63.377H13.0154C10.1534 63.377 7.40856 62.3209 5.3848 60.441C3.36105 58.5611 2.22412 56.0115 2.22412 53.3529V35.8109C2.22412 33.1524 3.36105 30.6027 5.3848 28.7228C7.40856 26.843 10.1534 25.7869 13.0154 25.7869H44.9396" stroke="black" stroke-width="2.4923" stroke-linecap="round" stroke-linejoin="round"/>
<path d="M51.9105 69.3749C52.591 70.2431 52.979 71.2793 53.0254 72.3523C53.0719 73.4254 52.7747 74.4871 52.1714 75.4033C51.5682 76.3195 50.686 77.0489 49.6364 77.4994C48.5868 77.9498 47.4169 78.1011 46.2748 77.934C45.1326 77.767 44.0695 77.2891 43.2198 76.5608C42.37 75.8325 41.7719 74.8865 41.5011 73.8425C41.2302 72.7985 41.2987 71.7033 41.698 70.6954C42.0973 69.6876 42.8094 68.8123 43.7442 68.1804C44.3645 67.7598 45.068 67.4569 45.8145 67.2893C46.5609 67.1217 47.3357 67.0925 48.0943 67.2035C48.8529 67.3144 49.5805 67.5633 50.2353 67.936C50.8902 68.3086 51.4595 68.7976 51.9105 69.3749Z" stroke="black" stroke-width="2.4923" stroke-linecap="round" stroke-linejoin="round"/>
<path d="M23.3398 13.4575L33.5297 22.9219" stroke="#A3CB38" stroke-width="2.4923" stroke-linecap="round" stroke-linejoin="round"/>
</svg>
